<svg version="1.1" xmlns="http://www.w3.org/2000/svg" xmlns:xlink="http://www.w3.org/1999/xlink" width="101.98816" height="72.00437" viewBox="0,0,101.98816,72.00437"><defs><linearGradient x1="206.88243" y1="40.88296" x2="206.88243" y2="101.59992" gradientUnits="userSpaceOnUse" id="color-1"><stop offset="0" stop-color="#ffffff"/><stop offset="1" stop-color="#66ebff"/></linearGradient><linearGradient x1="198.13747" y1="51.88893" x2="198.13747" y2="97.17528" gradientTransform="translate(-355.00468,-140.36893) scale(2.14247,2.03813)" gradientUnits="userSpaceOnUse" id="color-2"><stop offset="0" stop-color="#000000"/><stop offset="1" stop-color="#ffffff"/></linearGradient></defs><g transform="translate(-163.34507,-30.79314)"><g data-paper-data="{&quot;isPaintingLayer&quot;:true}" stroke-miterlimit="10" stroke-dasharray="" stroke-dashoffset="0" style="mix-blend-mode: normal"><path d="M163.34507,101.59992v-60.71696h87.07471v60.71696z" fill="url(#color-1)" fill-rule="nonzero" stroke="none" stroke-width="0" stroke-linecap="butt" stroke-linejoin="miter"/><g fill-rule="evenodd"><path d="" fill="#ffab19" stroke="#001026" stroke-width="1.2" stroke-linecap="round" stroke-linejoin="round"/><path d="" fill="#ffffff" stroke="none" stroke-width="1" stroke-linecap="butt" stroke-linejoin="miter"/></g><path d="" fill="#ffab19" fill-rule="evenodd" stroke="#001026" stroke-width="1.2" stroke-linecap="round" stroke-linejoin="round"/><path d="" fill="#ffab19" fill-rule="evenodd" stroke="#001026" stroke-width="1.2" stroke-linecap="round" stroke-linejoin="round"/><g fill-rule="evenodd"><path d="" fill="#ffab19" stroke="#001026" stroke-width="1.2" stroke-linecap="round" stroke-linejoin="round"/><path d="" fill="#ffffff" stroke="none" stroke-width="1" stroke-linecap="butt" stroke-linejoin="miter"/></g><path d="" fill="#ffab19" fill-rule="evenodd" stroke="#001026" stroke-width="1.2" stroke-linecap="round" stroke-linejoin="round"/><g fill-rule="evenodd"><path d="" fill="#ffab19" stroke="#001026" stroke-width="1.2" stroke-linecap="butt" stroke-linejoin="miter"/><path d="" fill="#ffffff" stroke="none" stroke-width="1" stroke-linecap="butt" stroke-linejoin="miter"/><path d="" fill="#ffffff" stroke="#001026" stroke-width="1.2" stroke-linecap="round" stroke-linejoin="round"/><path d="" fill="#001026" stroke="#001026" stroke-width="1.2" stroke-linecap="round" stroke-linejoin="round"/><g><path d="" fill="#ffffff" stroke="#001026" stroke-width="1.2" stroke-linecap="round" stroke-linejoin="round"/><path d="" fill="#001026" stroke="none" stroke-width="1" stroke-linecap="butt" stroke-linejoin="miter"/></g><g><path d="" fill="#ffffff" stroke="#001026" stroke-width="1.2" stroke-linecap="round" stroke-linejoin="round"/><path d="" fill="#001026" stroke="none" stroke-width="1" stroke-linecap="butt" stroke-linejoin="miter"/></g></g><path d="M208.2589,80.51879c0.59911,-0.32484 2.04045,-0.05501 2.70995,-0.05501c0.99434,0.00162 1.99879,0.02022 3.00283,0.0352c0.6966,0.01132 5.72006,0.05825 8.2593,-0.51174c4.60477,-1.03317 7.01213,-3.11407 7.66828,-3.10437c1.01618,0.01497 -4.53155,15.58131 -4.53155,15.58131c0,0 -5.16707,-0.37662 -8.30582,-2.15089c-5.72492,-3.23422 -8.64401,-8.85315 -8.80299,-9.79449z" fill="#828c00" fill-rule="nonzero" stroke="none" stroke-width="1" stroke-linecap="butt" stroke-linejoin="miter"/><path d="M229.35476,64.376c0.23948,0 0.12054,-1.18609 0.27305,-1.18609c0.15211,0 0.08536,1.15291 0.35801,1.1347c0.27306,-0.01861 0.10235,-1.09991 0.3568,-1.09991c0.25445,0 0.01497,2.28115 0.02508,2.9377c0.01497,0.88795 -0.02347,1.77953 0.01496,2.66585c0.03519,0.79328 0.15575,1.57969 0.5623,2.27468c0.23786,0.40493 1.72249,1.4377 3.30622,1.56594c0.95267,0.08212 1.91263,-0.01618 2.82889,-0.28964l1.05946,1.60598c0,0 -2.20429,0.61489 -4.18487,0.4551c-1.38066,-0.11003 -2.84547,-0.65331 -3.15696,-0.86165c-1.07969,-0.7148 -1.70065,-2.13755 -1.76942,-3.29895c-0.06513,-1.0983 -0.09183,-2.20469 -0.12216,-3.30582c-0.02508,-0.97978 -0.24434,-3.51416 0,-3.58252c0.24434,-0.06837 0.21602,0.98463 0.44862,0.98463z" fill="#828c00" fill-rule="nonzero" stroke="none" stroke-width="1" stroke-linecap="butt" stroke-linejoin="miter"/><path d="M248.24593,86.46054l3.62258,-4.99878c5.10558,5.43366 11.06108,11.24069 12.21966,12.24069c0.40008,-0.27832 0.54207,-0.71318 0.81998,-1.03641l0.37338,0.21643c-0.38147,0.46804 -1.81108,2.62257 -2.3034,3.02427c-0.42152,-0.30825 -14.73219,-9.4462 -14.73219,-9.4462z" fill="#828c00" fill-rule="nonzero" stroke="none" stroke-width="1" stroke-linecap="butt" stroke-linejoin="miter"/><path d="M228.19295,77.77122c0.54733,-0.52508 1.30057,-0.83333 1.88471,-1.2682c0.89077,-0.66626 1.94175,-1.15291 2.84587,-1.81432c0.29288,-0.21157 0.87217,-0.69983 0.87217,-0.69983l1.05947,-1.6064c0,0 0.75809,-2.06108 0.88228,-2.73948c0.50202,-2.72249 0.52873,-10.81391 0.54572,-13.57968l19.04894,5.31351l1.06958,3.94256c0,0 0.04207,4.05541 0.11893,6.0716c0.15251,3.9907 0.31634,7.83131 -0.28965,11.79733c-0.27589,1.81432 -0.57403,3.53722 -1.69053,5.0453c-1.17192,1.58131 -2.5627,2.88592 -4.45752,3.56594c-3.50202,1.25445 -19.90291,0.85639 -21.06148,0.73786c-1.20509,-0.12297 -2.46723,0.07686 -3.65898,-0.07322c-0.18406,-0.88795 -0.03358,-1.95793 -0.02023,-2.86084c0.05381,-3.77589 -0.1339,-8.96966 2.85073,-11.83212z" fill="#a0aa1e" fill-rule="nonzero" stroke="none" stroke-width="1" stroke-linecap="butt" stroke-linejoin="miter"/><path d="M256.34626,60.5722l0.05218,4.74717l-10.5809,-4.60235l10.52872,-0.14482" fill="#828c00" fill-rule="nonzero" stroke="none" stroke-width="1" stroke-linecap="butt" stroke-linejoin="miter"/><path d="M261.12983,63.55804c0.24595,0.06837 0.0267,2.60275 0,3.58252c-0.03034,1.10113 -0.05703,2.20753 -0.12216,3.30583c-0.06877,1.16141 -0.53236,2.38754 -1.61205,3.10072c-0.31473,0.20834 -1.93325,0.94984 -3.3127,1.05987c-1.98342,0.15979 -3.40291,-0.4466 -3.93851,-0.47977l-0.13228,-0.22856c0.03762,-0.54207 0.04409,-1.08657 0.0182,-1.62945c0.4284,-0.07686 2.14119,0.69821 3.75122,0.56634c1.58374,-0.12824 3.06836,-1.16141 3.30623,-1.56593c0.40817,-0.69499 0.52711,-1.48139 0.5623,-2.27468c0.03843,-0.88632 0,-1.77791 0.01497,-2.66586c0.01011,-0.65655 -0.22937,-2.9377 0.02508,-2.9377c0.25445,0 0.08373,1.08131 0.35679,1.09952c0.27265,0.01861 0.2059,-1.13471 0.35801,-1.13471c0.15251,0 0.03357,1.18649 0.27305,1.18649c0.23746,0 0.20591,-1.053 0.45186,-0.98463z" fill="#a0aa1e" fill-rule="nonzero" stroke="none" stroke-width="1" stroke-linecap="butt" stroke-linejoin="miter"/><path d="M242.50281,84.70447c0,0 -4.29531,15.13146 -4.29531,17.69214c0.23099,0.04005 1.44094,-0.12459 1.61691,0.12338c-0.14725,0.50849 -3.12864,0.18164 -3.73301,0.08334c-0.18568,-0.55137 -0.95388,-17.44214 -0.95388,-17.44214z" fill="#a0aa1e" fill-rule="nonzero" stroke="none" stroke-width="1" stroke-linecap="butt" stroke-linejoin="miter"/><g fill-rule="nonzero" stroke="none" stroke-width="1" stroke-linecap="butt" stroke-linejoin="miter"><path d="M250.4531,31.35956l6.99761,1.45526l-3.49881,0.80266l-3.49881,-2.25791" fill="#aaa082"/><path d="M255.32341,54.61349l3.74492,-2.637c0.48985,0.88641 1.02456,1.74742 1.60174,2.57984z" fill="#aaa082"/><path d="M254.93518,36.99242c1.17937,0.45293 6.69196,2.96926 6.69196,2.96926l-6.86424,2.71283c0,0 0.11512,-4.95128 0.17228,-5.68209z" fill="#dcd2b4"/><path d="M260.72604,47.49797c-0.71453,0.36758 -6.02665,1.97171 -6.02665,1.97171l-0.15124,-4.35744c0,0 6.17789,2.35953 6.17789,2.38573z" fill="#aaa082"/><path d="M261.14523,43.8384l-6.22036,1.64818c0,0 -0.34654,-2.41312 -0.25604,-3.27969c0.91658,0.07185 6.4764,1.6315 6.4764,1.6315z" fill="#dcd2b4"/><path d="M259.84677,35.85592c-1.27305,0.53986 -4.38879,1.59102 -5.74878,1.88358c-0.27629,-0.46762 -0.45849,-4.05654 -0.88403,-4.63054c0.00675,-0.01945 5.78053,2.24362 6.63281,2.74696z" fill="#dcd2b4"/><path d="M254.49456,49.10011l4.7274,1.86254l-4.61228,2.64693l-0.11512,-4.50946" fill="#aaa082"/><path d="M240.66883,40.80721c1.02495,-5.97306 3.71079,-9.00623 3.71079,-9.00623c0,0 3.44919,-0.92532 4.26256,-0.89118c1.17262,0.04763 4.10655,1.09243 5.32998,2.27776c0.28939,0.26557 0.52637,0.58234 0.69984,0.93365c0.38148,0.76613 0.62998,1.59102 0.73596,2.43972c0.11829,1.09283 0.17347,2.19201 0.16434,3.2912c0,1.14484 -0.20206,5.95838 -0.22865,7.22547c-0.00952,0.4577 -0.19054,4.17444 -0.21832,5.1196c0,0.22071 -0.18062,2.99705 -0.18062,2.99705l-14.4434,-0.79313c0,0 -0.73914,-8.31116 0.16752,-13.5939z" fill="#000000"/><path d="M244.88335,32.26224c0.82131,-0.30923 1.56204,-1.2671 2.37025,-1.23931c0.45293,-0.16276 0.93762,-0.21872 1.41596,-0.16354c1.90223,0.1437 6.54429,0.57718 6.54429,0.57718c0,0 -9.86049,1.16071 -10.33049,0.82567z" fill="#faf0e6"/><path d="M241.9919,35.47683c0.8757,0.1699 8.20477,3.83107 9.28728,4.9886c-0.33345,0.28105 -9.36271,2.1551 -10.07565,2.04712c-0.38744,-0.5609 0.37275,-5.929 0.78836,-7.03572z" fill="#ffffff"/><path d="M240.97846,40.94297c0.85744,0.56567 9.38255,4.17403 10.05579,4.95248c-0.9265,0.42832 -10.22172,3.30112 -10.22172,3.30112c0,0 -0.61926,-8.77679 0.16593,-8.25359z" fill="#ffffff"/><path d="M247.0194,50.6943c-0.00317,0.02143 -5.94765,1.96218 -5.94765,1.96218l-0.07899,-4.07122c0,0 5.32363,1.66922 6.02665,2.10905z" fill="#dcd2b4"/><path d="M261.6196,49.65466c0.68,1.40127 1.37507,3.2388 1.59499,4.779c-1.39929,-0.07979 -2.79738,-0.02263 -4.19984,-0.09964c0.2612,-0.88959 2.08761,-3.94221 2.60485,-4.67936z" fill="#faf0e6"/><path d="M255.95735,50.48034l3.68458,4.23795l-5.40421,0.04089l1.71963,-4.27884" fill="#faf0e6"/><path d="M250.01883,55.14184c-0.15124,-0.25366 2.46393,-3.98786 2.79262,-4.64205h0.06867c0.6276,1.13491 1.8415,3.76398 2.31627,4.96915c-0.64903,0.30407 -4.4924,-0.24215 -5.17756,-0.32709z" fill="#dcd2b4"/><path d="M249.22054,50.87769c0.21197,0.1961 1.71645,3.265 1.81848,3.68856c-0.59981,0.07701 -3.47103,0.32035 -3.55637,0.28938c-0.13616,-0.74231 1.46042,-3.30112 1.7379,-3.97794z" fill="#faf0e6"/><path d="M245.55064,54.44041c0.51247,-1.10196 1.19724,-2.28927 1.19724,-2.28927c0,0 0.65697,1.23614 1.17461,2.28927z" fill="#faf0e6"/><path d="M243.98186,55.01918c0.51247,-1.10037 1.19922,-2.28927 1.19922,-2.28927c0,0 0.65697,1.23614 1.17262,2.28927z" fill="#faf0e6"/><path d="M263.05619,54.70677c0,0 0.76733,-3.54644 1.00868,-4.06487c0.54701,0.7963 1.34688,3.31302 1.15992,3.96682c-0.44023,0.08336 -2.16859,0.09805 -2.16859,0.09805z" fill="#dcd2b4"/><path d="M251.95877,36.4855c-1.17302,0.06233 -9.7029,-0.08813 -9.7029,-0.08813l3.29993,-4.34949c0,0 6.09731,3.92594 6.40297,4.43762z" fill="#ffffff"/><path d="M235.67348,50.95748c0.10837,-4.48168 0.02937,-9.75291 2.14835,-13.82612c1.02177,-1.96218 2.22099,-3.67228 4.2709,-4.68095c1.05035,-0.54463 2.15946,-0.96819 3.30628,-1.26234c0.92968,-0.21436 2.33929,-0.5363 3.2773,-0.3271c-1.83832,0.60815 -3.08835,1.58269 -4.08869,3.24237c-1.1103,1.83951 -1.69026,4.00255 -2.16502,6.07746c-0.42673,1.98758 -0.61966,4.01803 -0.5748,6.04968c0.0131,1.02058 0.01826,2.04395 0.07225,3.05937c0.01151,0.19967 0.07066,4.48009 0.07066,4.48009c0,0 23.20511,0.4577 23.2722,0.37434c0.40768,0.89951 -1.06743,3.08557 -1.58665,3.7215c-0.85068,1.04004 -4.18198,3.06255 -4.68453,3.24079c-0.6792,0.2604 -1.3723,0.48349 -2.0765,0.66729c-1.29568,0.29891 -2.64097,0.30248 -3.96523,0.41363c-9.47425,0.71095 -14.36083,-0.54304 -16.97283,-1.15436c-0.14767,-3.35551 -0.38426,-6.70386 -0.30367,-10.07565z" fill="#a0aa1e"/><path d="M238.27119,52.74142c0.07939,-0.06312 0.19213,-0.06312 0.27112,0c0.65221,0.32869 1.15317,0.9011 1.28933,0.94675v0.20761l-1.65374,0.86815l-0.1957,-0.17982c0,0 1.36673,-0.71929 1.53107,-0.84354c-0.14648,-0.12425 -1.20755,-0.84712 -1.24209,-0.99915z" fill="#000000"/></g><text transform="translate(165.69843,68.87131) scale(0.46675,0.49065)" font-size="40" xml:space="preserve" fill="url(#color-2)" fill-rule="nonzero" stroke="none" stroke-width="1" stroke-linecap="butt" stroke-linejoin="miter" stroke-miterlimit="10" stroke-dasharray="" stroke-dashoffset="0" font-family="Serif" font-weight="normal" text-anchor="start" style="mix-blend-mode: normal"><tspan x="0" dy="0">Планета</tspan><tspan x="0" dy="46.15px">       Игр</tspan></text></g></g></svg>